<?xml version="1.0" encoding="utf-8"?>
<!-- Generator: Adobe Illustrator 16.0.0, SVG Export Plug-In . SVG Version: 6.00 Build 0)  -->
<!DOCTYPE svg PUBLIC "-//W3C//DTD SVG 1.1//EN" "http://www.w3.org/Graphics/SVG/1.1/DTD/svg11.dtd">
<svg version="1.1" id="Layer_1" xmlns="http://www.w3.org/2000/svg" xmlns:xlink="http://www.w3.org/1999/xlink" x="0px" y="0px"
	 width="391px" height="157px" viewBox="0 0 391 157" enable-background="new 0 0 391 157" xml:space="preserve">
<g>
	<path fill="#1D1F29" d="M154.773,132.068v0.552h18.712c4.959,0,8.357-1.379,10.588-3.364c2.173-1.985,3.175-4.578,3.175-6.949
		c0-4.084-2.563-9.546-11.644-10.705v-0.107c7.912-1.932,7.912-8.002,7.912-8.773c0-1.546-0.45-3.973-2.564-6.068
		c-2.061-2.045-5.736-3.696-12.254-3.696h-13.924v0.55c1.668,0,4.565,0.388,4.565,4.633v29.406
		C159.338,131.295,156.441,132.068,154.773,132.068 M165.301,94.774c0.666-0.109,1.666-0.328,2.893-0.328
		c5.124,0,8.689,3.692,8.689,9.046c0,6.896-5.68,7.617-9.301,7.617h-2.281V94.774z M165.301,112.596h2.562
		c5.518,0,7.629,1.431,8.689,2.205c1.17,0.829,3.842,3.091,3.842,7.727c0,4.522-2.73,8.606-9.132,8.606
		c-5.462,0-5.96-3.038-5.96-6.068V112.596z"/>
	<path fill="#1D1F29" d="M191.443,132.068v0.55h14.988v-0.55c-1.676-0.054-4.514-0.221-4.514-4.523V97.978
		c0-4.14,2.838-4.364,4.514-4.472v-0.55h-14.988v0.55c1.73,0.107,4.513,0.332,4.513,4.472v29.567
		C195.956,131.794,193.111,132.015,191.443,132.068"/>
	<path fill="#1D1F29" d="M247.16,133.612h0.666V97.976c0-4.082,2.73-4.36,4.568-4.47v-0.55h-11.087v0.55
		c1.783,0.109,4.568,0.388,4.568,4.47v25.379l-27.519-30.398h-9.801v0.55c1.225,0.109,2.84,0.221,5.179,2.926
		c0.056,0.107,0.169,0.167,0.223,0.221l1.56,1.765v29.128c0,4.249-2.844,4.47-4.513,4.523v0.552h10.974v-0.552
		c-1.67-0.054-4.509-0.219-4.509-4.523v-27.03L247.16,133.612z"/>
	<path fill="#1D1F29" d="M285.952,99.796c0.169-0.278,2.894-4.305,4.902-5.461c1.058-0.608,2.175-0.722,3.45-0.827v-0.554h-12.084
		v0.554c0.89,0.052,3.342,0.165,3.342,2.039c0,0.938-0.834,2.649-1.838,4.138c-0.058,0.111-0.167,0.219-0.167,0.219l-6.685,10.099
		l-7.13-11.145c-0.499-0.826-1.34-2.151-1.34-3.144c0-2.206,2.231-2.206,3.235-2.206v-0.554h-16.103v0.554
		c3.066,0,4.735,1.765,5.57,2.924c1.117,1.546,1.23,1.707,1.283,1.82c0.054,0.052,0.167,0.165,0.167,0.219l9.191,14.125v14.947
		c0,4.138-2.617,4.525-4.513,4.525v0.552h14.985v-0.552c-2.508,0-4.514-0.388-4.514-4.525v-15.222L285.952,99.796z"/>
	<path fill="#1D1F29" d="M313.819,132.068v0.552h15.544v-0.552c-2.395-0.328-4.345-0.992-6.129-6.177l-11.583-33.488h-4.963
		l-11.024,34.262c-0.837,2.537-2.395,5.185-5.684,5.403v0.552h10.695v-0.552c-0.948-0.054-3.343-0.219-3.343-3.198
		c0-0.605,0.223-1.986,0.67-3.311l2.953-9.104h12.863l3.342,9.768c0.614,1.765,0.672,2.371,0.672,2.865
		C317.833,131.961,315.103,132.015,313.819,132.068 M301.568,114.525l5.569-17.321h0.109l5.906,17.321H301.568z"/>
	<path fill="#1D1F29" d="M373,93.506v-0.55h-15.039v0.55c1.949,0,4.513,0.553,4.513,4.525v12.633h-20.89V98.031
		c0-3.973,2.675-4.525,4.512-4.525v-0.55h-14.982v0.55c2.115,0,4.51,0.553,4.51,4.525v29.514c0,3.696-2.175,4.523-4.51,4.523v0.552
		h14.982v-0.552c-2.504,0-4.512-0.827-4.512-4.523v-14.949h20.89v14.949c0,3.696-2.174,4.523-4.513,4.523v0.552H373v-0.552
		c-2.281,0-4.566-0.827-4.566-4.523V98.031C368.434,94.059,371.051,93.506,373,93.506"/>
	<path fill="#1D1F29" d="M180.917,36.188c0.794-0.732,1.192-1.674,1.192-2.839c0-1.16-0.388-2.121-1.174-2.875
		c-0.789-0.75-1.764-1.131-2.94-1.131c-1.148,0-2.123,0.387-2.917,1.15c-0.8,0.767-1.196,1.719-1.196,2.856
		c0,1.165,0.389,2.106,1.179,2.839c0.785,0.732,1.764,1.097,2.934,1.097C179.142,37.284,180.117,36.919,180.917,36.188"/>
	<path fill="#1D1F29" d="M170.538,36.188c0.8-0.732,1.198-1.674,1.198-2.839c0-1.16-0.395-2.121-1.179-2.875
		c-0.785-0.75-1.763-1.131-2.936-1.131c-1.151,0-2.122,0.387-2.92,1.15c-0.8,0.767-1.192,1.719-1.192,2.856
		c0,1.165,0.389,2.106,1.174,2.839c0.785,0.732,1.764,1.097,2.938,1.097C168.769,37.284,169.744,36.919,170.538,36.188"/>
	<path fill="#1D1F29" d="M242.997,79.538c0.797-0.747,1.196-1.686,1.196-2.821c0-1.165-0.394-2.127-1.179-2.895
		c-0.785-0.769-1.765-1.149-2.935-1.149c-1.153,0-2.123,0.391-2.922,1.168c-0.799,0.777-1.192,1.734-1.192,2.875
		c0,1.158,0.39,2.106,1.175,2.833c0.785,0.731,1.765,1.102,2.939,1.102C241.227,80.651,242.198,80.277,242.997,79.538"/>
	<path fill="#1D1F29" d="M233.502,79.538c0.795-0.747,1.194-1.686,1.194-2.821c0-1.165-0.392-2.127-1.175-2.895
		c-0.79-0.769-1.764-1.149-2.938-1.149c-1.148,0-2.126,0.391-2.917,1.168c-0.799,0.777-1.198,1.734-1.198,2.875
		c0,1.158,0.396,2.106,1.18,2.833c0.785,0.731,1.765,1.102,2.936,1.102C231.729,80.651,232.705,80.277,233.502,79.538"/>
	<path fill="#1D1F29" d="M305.083,36.102c0.795-0.745,1.194-1.685,1.194-2.819c0-1.165-0.392-2.127-1.176-2.895
		c-0.789-0.769-1.763-1.15-2.939-1.15c-1.146,0-2.122,0.391-2.915,1.168c-0.799,0.777-1.198,1.734-1.198,2.876
		c0,1.157,0.396,2.105,1.18,2.837c0.785,0.729,1.765,1.095,2.934,1.095C303.311,37.215,304.286,36.843,305.083,36.102"/>
	<path fill="#1D1F29" d="M349.819,69.572h22.891l0.031-0.276c-2.063-0.654-3.328-2.428-3.795-5.328
		c-0.163-0.862-0.247-3.217-0.247-7.073v-4.738c0-3.876,0.128-7.614,0.386-11.218c-3.005,0.952-6.516,1.685-10.55,2.197v0.454
		c1.619,0.089,2.648,0.778,3.094,2.054c0.236,0.651,0.354,2.008,0.354,4.074v8.221c0,2.417,0.105,4.074,0.318,4.98
		c0.326,1.37,1.065,2.637,2.214,3.798h-14.701v0.035l-31.754-0.035h-4.534V52.157c0-3.876,0.127-7.614,0.385-11.218
		c-3.002,0.952-6.518,1.685-10.55,2.197v0.454c1.619,0.089,2.635,0.778,3.057,2.054c0.236,0.651,0.354,2.008,0.354,4.074v17h-11.571
		v0.035l-45.977-0.035h-4.853V52.157c0-3.876,0.125-7.614,0.386-11.218c-3.003,0.952-6.519,1.685-10.551,2.197v0.454
		c1.616,0.089,2.649,0.778,3.095,2.054c0.236,0.651,0.354,2.008,0.354,4.074v17h-13.612v0.035l-28.638-0.035h-5.874V51.81
		c0-3.183,0.05-5.052,0.141-5.608c0.329-2.462,1.263-3.864,2.816-4.215v-0.346l-2.218,0.067h-5.698
		c-0.915,1.581-1.65,3.158-2.214,4.74c-2.439-3.626-5.559-5.436-9.355-5.436c-4.01,0-7.303,1.248-9.885,3.743
		c-2.573,2.497-3.868,5.732-3.868,9.703c0,4.014,1.221,7.395,3.661,10.134c2.555,2.834,5.838,4.25,9.848,4.25
		c2.109,0,4.033-0.476,5.765-1.431c1.805-1.02,3.129-2.448,3.978-4.279v6.44h12.905l28.644,0.037v-0.037h25.176l45.977,0.037v-0.037
		h22.86l31.76,0.037V69.572z M180.948,62.574c-1.475,2.273-3.671,3.41-6.577,3.41c-2.908,0-5.122-1.151-6.646-3.447
		c-1.288-1.927-1.932-4.402-1.932-7.421c0-3.04,0.629-5.539,1.895-7.489c1.502-2.299,3.708-3.445,6.613-3.445
		c2.93,0,5.134,1.138,6.613,3.411c1.264,1.904,1.897,4.416,1.897,7.522C182.813,58.185,182.189,60.669,180.948,62.574"/>
	<path fill="#1D1F29" d="M355.443,73.841c-0.799,0.777-1.198,1.734-1.198,2.875c0,1.159,0.392,2.107,1.18,2.833
		c0.785,0.733,1.765,1.102,2.936,1.102c1.146,0,2.122-0.372,2.919-1.115c0.795-0.745,1.194-1.686,1.194-2.82
		c0-1.165-0.392-2.125-1.175-2.894c-0.79-0.767-1.764-1.149-2.938-1.149C357.212,72.673,356.236,73.064,355.443,73.841"/>
	<path fill="#6CA439" d="M29.209,99.913c-5.413-5.363-5.413-14.137,0-19.499L68.492,41.51c5.412-5.361,14.27-5.361,19.685,0
		l39.275,38.904c5.414,5.362,5.414,14.136,0,19.499l7.479-7.404c6.314-6.26,6.314-16.491,0-22.746L89.815,25.079
		c-6.316-6.255-16.652-6.255-22.968,0L21.733,69.763C18.579,72.887,17.002,77.007,17,81.13v0.01
		c0.002,4.122,1.579,8.243,4.733,11.369L29.209,99.913z"/>
	<path fill="#6CA439" d="M112.779,114.854c4.396-4.35,4.396-11.474,0-15.824L86.32,72.821c-4.394-4.348-11.581-4.348-15.978,0
		L43.882,99.03c-4.396,4.351-4.396,11.475,0,15.824l5.26,5.201c-3.519-3.478-3.519-9.175,0-12.657l22.801-22.582
		c3.512-3.481,9.262-3.481,12.777,0l22.805,22.582c3.516,3.482,3.516,9.18,0,12.657L112.779,114.854z"/>
	<path fill="#6CA439" d="M95.916,130.508c2.247-2.224,2.247-5.854,0-8.078L82.41,109.052c-2.242-2.222-5.913-2.222-8.157,0
		L60.744,122.43c-2.24,2.224-2.24,5.854,0,8.078l2.685,2.651c-1.793-1.776-1.793-4.682,0-6.461l11.639-11.525
		c1.795-1.778,4.729-1.778,6.526,0l11.642,11.525c1.791,1.779,1.791,4.685,0,6.461L95.916,130.508z"/>
</g>
</svg>
